<svg id="Ebene_1" data-name="Ebene 1" xmlns="http://www.w3.org/2000/svg" viewBox="0 0 156.91 227.77"><defs><style>.cls-1{fill:#fff;}.cls-1,.cls-2,.cls-4{stroke:#000;stroke-miterlimit:10;}.cls-2,.cls-4{fill:none;}.cls-3{fill:#f61018;}.cls-4{stroke-width:0.75px;}</style></defs><title>aufkleber</title><rect class="cls-1" x="0.5" y="0.5" width="155.91" height="226.77" rx="14.17" ry="14.17"/><circle class="cls-2" cx="78.45" cy="182.31" r="17.01"/><circle class="cls-2" cx="78.45" cy="113.89" r="14.17"/><circle class="cls-2" cx="146.28" cy="9.59" r="8.5"/><circle class="cls-2" cx="146.28" cy="217.79" r="8.5"/><circle class="cls-2" cx="10.42" cy="9.74" r="8.5"/><circle class="cls-2" cx="10.42" cy="217.94" r="8.5"/><path d="M112.69,177.77l-2.1-3.25-.89,0v3.29h-1.45V169.9l.91,0c.52,0,1,0,1.27,0,2,0,3,.77,3,2.32a2.28,2.28,0,0,1-1.46,2.08l2.33,3.55Zm-3-6.66v2.19l.59,0a2.46,2.46,0,0,0,1.28-.25,1,1,0,0,0,.41-1,.85.85,0,0,0-.44-.81,3.1,3.1,0,0,0-1.37-.23Z"/><path d="M120,175.3h-4.1a1.43,1.43,0,0,0,.47,1.07,1.68,1.68,0,0,0,1.17.38,1.9,1.9,0,0,0,1.4-.48l.52,1a3.35,3.35,0,0,1-2.12.58,2.78,2.78,0,0,1-2.08-.78,2.91,2.91,0,0,1-.77-2.15,3,3,0,0,1,.84-2.2,3,3,0,0,1,4-.1,2.56,2.56,0,0,1,.76,1.91A3.51,3.51,0,0,1,120,175.3Zm-4.06-1h2.83a1.26,1.26,0,0,0-1.4-1.26A1.39,1.39,0,0,0,116,174.29Z"/><path d="M122.16,177.45l-.3.43h-.76v-8l1.35-.32v2.69a2.15,2.15,0,0,1,1.17-.33,2.66,2.66,0,0,1,2,.8,2.79,2.79,0,0,1,.78,2,3.22,3.22,0,0,1-.78,2.28,2.76,2.76,0,0,1-2.11.85A2.27,2.27,0,0,1,122.16,177.45Zm.29-4.07v3a1,1,0,0,0,.8.35,1.74,1.74,0,0,0,1.37-.47,2.19,2.19,0,0,0,.41-1.47c0-1.17-.56-1.75-1.68-1.75A1.17,1.17,0,0,0,122.45,173.38Z"/><path d="M127.23,174.88a3.06,3.06,0,0,1,.76-2.14,2.92,2.92,0,0,1,4,0,3.6,3.6,0,0,1,0,4.36,2.92,2.92,0,0,1-4.06,0A3.16,3.16,0,0,1,127.23,174.88Zm1.4,0c0,1.27.46,1.9,1.37,1.9a1.15,1.15,0,0,0,1-.49,2.3,2.3,0,0,0,.37-1.41c0-1.25-.45-1.88-1.36-1.88a1.19,1.19,0,0,0-1,.5A2.24,2.24,0,0,0,128.63,174.88Z"/><path d="M133.46,174.88a3,3,0,0,1,.76-2.14,2.55,2.55,0,0,1,2-.83,2.61,2.61,0,0,1,2,.79,3.64,3.64,0,0,1,0,4.36,2.94,2.94,0,0,1-4.07,0A3.2,3.2,0,0,1,133.46,174.88Zm1.39,0c0,1.27.46,1.9,1.37,1.9a1.18,1.18,0,0,0,1-.49,2.37,2.37,0,0,0,.37-1.41c0-1.25-.46-1.88-1.37-1.88a1.19,1.19,0,0,0-1,.5A2.31,2.31,0,0,0,134.85,174.88Z"/><path d="M140.26,173.09h-.66V172h.66v-1.18l1.34-.49V172h1.58v1.07H141.6v2.52a1.48,1.48,0,0,0,.2.88.79.79,0,0,0,.67.25,1.72,1.72,0,0,0,.91-.26v1.23a4.21,4.21,0,0,1-1.33.17,1.77,1.77,0,0,1-1.33-.49,2,2,0,0,1-.46-1.38Z"/><path d="M108.87,190.05v-1.22l2.83-1.28-2.83-1.27v-1.23l4.29,2.06V188Z"/><path d="M114.78,190.37l.55-1.15a2.54,2.54,0,0,0,1.47.67c.9,0,1.35-.56,1.35-1.67a1.8,1.8,0,0,0-.31-1.17,1.26,1.26,0,0,0-1-.36,1.76,1.76,0,0,0-1.27.64L115,187v-3.9h4.23v1.18h-2.89v1.41a2,2,0,0,1,.85-.16,2.29,2.29,0,0,1,1.78.67,2.67,2.67,0,0,1,.63,1.9c0,2-.93,3-2.8,3A3.09,3.09,0,0,1,114.78,190.37Z"/><path d="M124.08,190.53l.51-1.25a2.85,2.85,0,0,0,1.63.58c.82,0,1.23-.28,1.23-.86a1.25,1.25,0,0,0-.29-.77,3.71,3.71,0,0,0-1.19-.81,6.11,6.11,0,0,1-1.22-.75,2.16,2.16,0,0,1-.49-.7,2.31,2.31,0,0,1-.17-.89,2,2,0,0,1,.67-1.51,2.49,2.49,0,0,1,1.72-.6,3.11,3.11,0,0,1,2,.51l-.42,1.2a2.64,2.64,0,0,0-1.55-.53,1,1,0,0,0-.75.26.87.87,0,0,0-.27.66q0,.68,1.5,1.41a4.73,4.73,0,0,1,1.14.71,2.22,2.22,0,0,1,.53.76,2.49,2.49,0,0,1,.18,1,1.94,1.94,0,0,1-.75,1.57,3,3,0,0,1-2,.62A3.59,3.59,0,0,1,124.08,190.53Z"/><path d="M135.13,188.5H131a1.48,1.48,0,0,0,.48,1.07,1.68,1.68,0,0,0,1.17.38,1.86,1.86,0,0,0,1.39-.48l.53,1a3.35,3.35,0,0,1-2.12.58,2.78,2.78,0,0,1-2.08-.78,2.91,2.91,0,0,1-.77-2.15,3,3,0,0,1,.84-2.2,2.75,2.75,0,0,1,2-.84,2.78,2.78,0,0,1,2,.74,2.6,2.6,0,0,1,.76,1.91A3.51,3.51,0,0,1,135.13,188.5Zm-4.06-1h2.83a1.27,1.27,0,0,0-1.4-1.26A1.38,1.38,0,0,0,131.07,187.49Z"/><path d="M140,191l-1.69-2.61-.65.69V191h-1.34v-7.9l1.34-.32v4.67l1.92-2.2h1.62l-1.95,2.18,2.34,3.57Z"/><path d="M142.56,190.26a.93.93,0,0,1,.28-.68.91.91,0,0,1,.68-.28,1,1,0,0,1,0,1.94.92.92,0,0,1-.68-.29A.94.94,0,0,1,142.56,190.26Z"/><path d="M15.9,177.88h-.58l-1.72-5-1.67,5h-.57l-2.59-8h1.46l1.48,4.75,1.59-4.75h.61l1.6,4.75L17,169.9h1.45Z"/><path d="M22,177.19a1.28,1.28,0,0,1-.64.49,2.38,2.38,0,0,1-1,.2,2.15,2.15,0,0,1-1.46-.47,1.67,1.67,0,0,1-.53-1.32,1.85,1.85,0,0,1,.75-1.56,3.46,3.46,0,0,1,2.13-.56,2.09,2.09,0,0,1,.56.08q0-1-1.29-1a2.8,2.8,0,0,0-1.26.25l-.29-1a3.78,3.78,0,0,1,1.64-.33,2.67,2.67,0,0,1,1.93.6,3.16,3.16,0,0,1,.62,2.27V176c0,.76.15,1.24.46,1.44a.79.79,0,0,1-.37.36,1.72,1.72,0,0,1-.47.07.76.76,0,0,1-.52-.22A1,1,0,0,1,22,177.19Zm-.13-2.13a2.57,2.57,0,0,0-.52-.07c-1.06,0-1.59.35-1.59,1q0,.78.9.78a1.07,1.07,0,0,0,1.21-1.21Z"/><path d="M28.32,177.77l-1.69-2.61-.64.68v1.93H24.65v-7.9l1.34-.32v4.67l1.92-2.2h1.61l-1.94,2.18,2.34,3.57Z"/><path d="M35.81,175.3H31.7a1.43,1.43,0,0,0,.47,1.07,1.68,1.68,0,0,0,1.17.38,1.9,1.9,0,0,0,1.4-.48l.52,1a3.33,3.33,0,0,1-2.12.58,2.78,2.78,0,0,1-2.08-.78A2.91,2.91,0,0,1,30.3,175a3,3,0,0,1,.84-2.2,3,3,0,0,1,4-.1,2.56,2.56,0,0,1,.76,1.91A4.09,4.09,0,0,1,35.81,175.3Zm-4.06-1h2.82a1.26,1.26,0,0,0-1.4-1.26A1.37,1.37,0,0,0,31.75,174.29Z"/><path d="M40.39,169.9h1.39v5.33a1.36,1.36,0,0,0,1.45,1.43,1.66,1.66,0,0,0,1.18-.39,1.34,1.34,0,0,0,.43-1.06V169.9h1.39v5.41a2.38,2.38,0,0,1-.81,1.91,3.31,3.31,0,0,1-2.17.68,3,3,0,0,1-2.12-.67,2.48,2.48,0,0,1-.74-1.92Z"/><path d="M49,177.62V180H47.65v-8H49v.38a1.69,1.69,0,0,1,1.24-.49c1.83,0,2.75,1,2.75,3a2.93,2.93,0,0,1-.76,2.17,2.81,2.81,0,0,1-2.08.77A2.56,2.56,0,0,1,49,177.62Zm0-4.2v3a1.35,1.35,0,0,0,.85.29,1.77,1.77,0,0,0,1.34-.44,2.72,2.72,0,0,0,0-2.84,1.82,1.82,0,0,0-1.33-.41A1.17,1.17,0,0,0,49,173.42Z"/><path d="M16.26,188v-.87l4.29-2.06v1.23l-2.83,1.27,2.83,1.28v1.22Z"/><path d="M24.73,191V185.3l-1.6,1v-1.34a7.12,7.12,0,0,0,2.44-1.85h.56V191Z"/><path d="M31.86,190.53l.52-1.25a2.8,2.8,0,0,0,1.63.58c.82,0,1.23-.28,1.23-.86a1.25,1.25,0,0,0-.29-.77,3.78,3.78,0,0,0-1.2-.81,6.44,6.44,0,0,1-1.22-.75,2,2,0,0,1-.48-.7,2.31,2.31,0,0,1-.17-.89,1.93,1.93,0,0,1,.67-1.51,2.46,2.46,0,0,1,1.71-.6,3.16,3.16,0,0,1,2,.51l-.43,1.2a2.62,2.62,0,0,0-1.55-.53,1.05,1.05,0,0,0-.75.26.9.9,0,0,0-.26.66q0,.68,1.5,1.41a4.84,4.84,0,0,1,1.13.71,2.25,2.25,0,0,1,.54.76,2.49,2.49,0,0,1,.18,1,1.92,1.92,0,0,1-.76,1.57,3,3,0,0,1-2,.62A3.61,3.61,0,0,1,31.86,190.53Z"/><path d="M42.92,188.5H38.81a1.43,1.43,0,0,0,.47,1.07,1.68,1.68,0,0,0,1.17.38,1.9,1.9,0,0,0,1.4-.48l.52,1a3.33,3.33,0,0,1-2.12.58,2.79,2.79,0,0,1-2.08-.78,2.91,2.91,0,0,1-.76-2.15,3,3,0,0,1,.84-2.2,3,3,0,0,1,4-.1,2.56,2.56,0,0,1,.76,1.91A4.09,4.09,0,0,1,42.92,188.5Zm-4.06-1h2.82a1.26,1.26,0,0,0-1.39-1.26A1.38,1.38,0,0,0,38.86,187.49Z"/><path d="M47.78,191l-1.69-2.61-.64.69V191H44.1v-7.9l1.35-.32v4.67l1.92-2.2H49L47,187.4,49.38,191Z"/><path d="M50.34,190.26a1,1,0,0,1,1-1,.91.91,0,0,1,.68.28,1,1,0,0,1-.68,1.66,1,1,0,0,1-1-1Z"/><path id="logo" class="cls-3" d="M119,44.57a9,9,0,0,1-7.12-3.51l1.32-1a7.24,7.24,0,0,0,5.8,2.87,7.31,7.31,0,1,0,0-14.62A7.13,7.13,0,0,0,114,30.39a7.67,7.67,0,0,0-2.19,5.51A8.37,8.37,0,0,1,109.43,42a9.07,9.07,0,1,1-6.55-15.44,8.91,8.91,0,0,1,6.91,3.26l-1.29,1.07a7.31,7.31,0,1,0-5.62,12,7.44,7.44,0,0,0,5.37-2,6.65,6.65,0,0,0,1.86-4.83,9.3,9.3,0,0,1,2.69-6.7,8.82,8.82,0,0,1,6.27-2.61,9,9,0,1,1,0,17.94ZM106.28,36.3h.65v.86h-.65v1.21h-1.14V37.16h-2.3l0-.68,2.33-3.73h1.14Zm-2.43,0h1.29v-2h0l-.07.14Zm-1.54,2.07H98.58v-.71l1.76-1.9a3.64,3.64,0,0,0,.53-.75,1.25,1.25,0,0,0,.15-.58,1,1,0,0,0-.18-.57.65.65,0,0,0-.54-.21.66.66,0,0,0-.57.25,1,1,0,0,0-.18.68H98.47v0A1.65,1.65,0,0,1,99,33.29a1.75,1.75,0,0,1,1.36-.5,1.87,1.87,0,0,1,1.32.43,1.49,1.49,0,0,1,.47,1.18,1.55,1.55,0,0,1-.29.89A7.45,7.45,0,0,1,101,36.4l-1,1v0h2.29v.89Zm18.87-5.58h-4v.86h2.86a7,7,0,0,0-1.18,1.89,8.32,8.32,0,0,0-.57,2.26l0,.57h1.11l0-.57a10.23,10.23,0,0,1,.46-2.18,7.3,7.3,0,0,1,1.22-2v-.86ZM33.11,41.85a5.5,5.5,0,0,0,4.08-1.54,5.43,5.43,0,0,0,1.58-4v-2a5.42,5.42,0,0,0-1.58-4,5.29,5.29,0,0,0-4.08-1.61H28.85V41.85Zm0-11.43a3.28,3.28,0,0,1,2.58,1.08,3.83,3.83,0,0,1,.93,2.72v2A4.11,4.11,0,0,1,35.65,39a3.2,3.2,0,0,1-2.58,1.08H31V30.42Zm10-1.75H40.85V41.85H43Zm3.87,0H44.57l4.69,13.18h2.08l4.73-13.18H53.74l-3.15,9.74-.25.89h-.08L50,38.37Zm18.62,5.48H59.76V30.42h6.62V28.67H57.57V41.85h8.88V40.09H59.76V35.9h5.76Zm7.7,2.22A2,2,0,0,1,74.8,37a2.17,2.17,0,0,1,.57,1.61v1.07a8,8,0,0,0,.11,1.26,1.32,1.32,0,0,0,.47.93H78.2v-.22a1.69,1.69,0,0,1-.5-.86,3.88,3.88,0,0,1-.14-1.14V38.52a3.74,3.74,0,0,0-.5-2,2.67,2.67,0,0,0-1.62-1.15A3.48,3.48,0,0,0,77,34.22a2.92,2.92,0,0,0,.54-1.76,3.4,3.4,0,0,0-1.22-2.83,5.06,5.06,0,0,0-3.4-1H68V41.81h2.18V36.37Zm-2.93-5.95H73A2.46,2.46,0,0,1,74.8,31a2.1,2.1,0,0,1,.61,1.57,1.93,1.93,0,0,1-.61,1.54,3.06,3.06,0,0,1-1.93.5H70.32V30.42ZM88.8,41.85H91L86.26,28.67H84.18L79.35,41.85h2.22l1-3.08h5.16ZM85.19,31.28h.07l1.9,5.63H83.25Z"/><path d="M40.31,57.27H39L38.14,53l-1.58,4.35h-.5L34.48,53l-.85,4.24H32.28l1.58-7.87h.75l1.7,5.3L38,49.4h.74Z"/><path d="M40.8,53.27a4.49,4.49,0,0,1,.92-2.85,3,3,0,0,1,2.46-1.16,3.24,3.24,0,0,1,2.6,1.05,4.47,4.47,0,0,1,.89,3,4.6,4.6,0,0,1-.93,3,3.31,3.31,0,0,1-2.67,1.11,2.91,2.91,0,0,1-2.43-1.1A4.91,4.91,0,0,1,40.8,53.27Zm1.45,0a4,4,0,0,0,.47,2.13,1.48,1.48,0,0,0,1.35.76,1.87,1.87,0,0,0,1.6-.74,3.54,3.54,0,0,0,.55-2.15c0-1.85-.68-2.77-2-2.77a1.61,1.61,0,0,0-1.43.75A3.53,3.53,0,0,0,42.25,53.27Z"/><path d="M54.07,57.38l-3.82-5v4.87H48.91V49.4h.67l3.72,4.75V49.4h1.34v8Z"/><path d="M56.28,57.27V49.4h1.39v7.87Z"/><path d="M62.51,50.64v6.63H61.12V50.64H58.61V49.4h6.52v1.24Z"/><path d="M65,53.27a4.49,4.49,0,0,1,.92-2.85,3,3,0,0,1,2.46-1.16A3.23,3.23,0,0,1,71,50.31a4.42,4.42,0,0,1,.9,3,4.6,4.6,0,0,1-.94,3,3.29,3.29,0,0,1-2.66,1.11,2.88,2.88,0,0,1-2.43-1.1A4.85,4.85,0,0,1,65,53.27Zm1.45,0a4.05,4.05,0,0,0,.47,2.13,1.49,1.49,0,0,0,1.36.76,1.88,1.88,0,0,0,1.6-.74,3.61,3.61,0,0,0,.55-2.15c0-1.85-.68-2.77-2-2.77a1.61,1.61,0,0,0-1.43.75A3.61,3.61,0,0,0,66.46,53.27Z"/><path d="M77.56,57.27,75.46,54l-.89,0v3.29H73.12V49.4l.91,0c.53,0,1,0,1.27,0,2,0,3,.77,3,2.32a2.25,2.25,0,0,1-1.46,2.08l2.33,3.55Zm-3-6.66V52.8l.59,0a2.46,2.46,0,0,0,1.28-.25,1,1,0,0,0,.41-1,.85.85,0,0,0-.44-.81A3.1,3.1,0,0,0,75,50.58Z"/><path d="M85.56,57.27H83.15V49.4c1.06,0,1.81-.07,2.23-.07a3.11,3.11,0,0,1,1.92.52,1.77,1.77,0,0,1,.69,1.5,1.66,1.66,0,0,1-1,1.48,2,2,0,0,1,1.47,2.1,2.05,2.05,0,0,1-.81,1.71A3.34,3.34,0,0,1,85.56,57.27Zm-1-6.75v1.89l.68,0c.91,0,1.36-.34,1.36-1s-.41-.9-1.24-.9C85.13,50.5,84.87,50.5,84.55,50.52Zm0,3v2.6l.69,0a2.34,2.34,0,0,0,1.36-.31,1.23,1.23,0,0,0,.42-1,1.14,1.14,0,0,0-.4-1,2.21,2.21,0,0,0-1.36-.31Z"/><path d="M89.7,49.4h1.4v5.33a1.34,1.34,0,0,0,1.45,1.43,1.68,1.68,0,0,0,1.18-.39,1.37,1.37,0,0,0,.42-1.06V49.4h1.4v5.41a2.39,2.39,0,0,1-.82,1.91,3.28,3.28,0,0,1-2.17.68,3,3,0,0,1-2.11-.67,2.45,2.45,0,0,1-.75-1.92Z"/><path d="M100.36,50.64v6.63H99V50.64h-2.5V49.4H103v1.24Z"/><path d="M107.09,50.64v6.63h-1.4V50.64h-2.5V49.4h6.51v1.24Z"/><path d="M109.59,53.27a4.43,4.43,0,0,1,.92-2.85A3,3,0,0,1,113,49.26a3.21,3.21,0,0,1,2.59,1.05,4.42,4.42,0,0,1,.9,3,4.55,4.55,0,0,1-.94,3,3.28,3.28,0,0,1-2.66,1.11,2.89,2.89,0,0,1-2.43-1.1A4.91,4.91,0,0,1,109.59,53.27Zm1.45,0a4.06,4.06,0,0,0,.46,2.13,1.5,1.5,0,0,0,1.36.76,1.88,1.88,0,0,0,1.6-.74,3.54,3.54,0,0,0,.55-2.15c0-1.85-.68-2.77-2-2.77a1.64,1.64,0,0,0-1.44.75A3.62,3.62,0,0,0,111,53.27Z"/><path d="M122.86,57.38l-3.82-5v4.87H117.7V49.4h.67l3.71,4.75V49.4h1.35v8Z"/><line class="cls-4" x1="68.29" y1="123.77" x2="88.62" y2="104.01"/><line class="cls-4" x1="68.57" y1="103.48" x2="88.33" y2="123.81"/><line class="cls-4" x1="66.41" y1="194.3" x2="90.5" y2="170.89"/><line class="cls-4" x1="66.74" y1="170.26" x2="90.16" y2="194.35"/><path d="M73.69,106.61l-.19-.21a2.37,2.37,0,0,0,.86-1.07.66.66,0,0,1-.46.16.79.79,0,0,1-.6-.25.89.89,0,0,1-.23-.66,1,1,0,0,1,.23-.68.78.78,0,0,1,.59-.25c.63,0,1,.41,1,1.24a2,2,0,0,1-.37,1.07A1.48,1.48,0,0,1,73.69,106.61Zm.74-2c0-.41-.17-.61-.51-.61a.38.38,0,0,0-.33.16.66.66,0,0,0-.12.42.65.65,0,0,0,.13.43.38.38,0,0,0,.33.16C74.26,105.15,74.43,105,74.43,104.59Z"/><path d="M75.46,107.27l-.1-.14c.22-.19.34-.34.34-.47a.27.27,0,0,0-.06-.17.28.28,0,0,1-.17-.24.25.25,0,0,1,.08-.17.32.32,0,0,1,.2-.06.25.25,0,0,1,.19.09.31.31,0,0,1,.09.22,1,1,0,0,1-.11.47A1.64,1.64,0,0,1,75.46,107.27Z"/><path d="M77.8,103.65l.19.2a1.63,1.63,0,0,0-.49.47,1.44,1.44,0,0,0-.36.6.61.61,0,0,1,.45-.15.78.78,0,0,1,.6.24.89.89,0,0,1,.23.66,1,1,0,0,1-.23.68.79.79,0,0,1-.59.26c-.63,0-.95-.42-.95-1.25a2,2,0,0,1,.37-1.07A1.46,1.46,0,0,1,77.8,103.65Zm-.74,2c0,.41.17.61.51.61a.38.38,0,0,0,.33-.16.66.66,0,0,0,.12-.42.65.65,0,0,0-.13-.43.38.38,0,0,0-.33-.16C77.23,105.1,77.06,105.29,77.06,105.66Z"/><path d="M81.27,106.56v-1.33c0-.33-.14-.49-.42-.49a.5.5,0,0,0-.26.08.56.56,0,0,0-.16.19v1.55h-.37v-1.49a.3.3,0,0,0-.11-.24.5.5,0,0,0-.31-.09.49.49,0,0,0-.24.08.79.79,0,0,0-.18.19v1.55h-.37v-2.09h.24l.13.24a.63.63,0,0,1,.53-.28.68.68,0,0,1,.63.28.45.45,0,0,1,.24-.2.72.72,0,0,1,.35-.08.65.65,0,0,1,.5.19.76.76,0,0,1,.17.54v1.4Z"/><path d="M84.59,106.56v-1.33c0-.33-.14-.49-.42-.49a.5.5,0,0,0-.26.08.56.56,0,0,0-.16.19v1.55h-.37v-1.49a.3.3,0,0,0-.11-.24.5.5,0,0,0-.31-.09.52.52,0,0,0-.24.08.79.79,0,0,0-.18.19v1.55h-.37v-2.09h.24l.13.24a.63.63,0,0,1,.53-.28.68.68,0,0,1,.63.28.45.45,0,0,1,.24-.2.72.72,0,0,1,.35-.08.65.65,0,0,1,.5.19.77.77,0,0,1,.18.54v1.4Z"/><path d="M73.9,174.56v-2.2l-.59.37v-.37a3.13,3.13,0,0,0,.86-.68h.12v2.88Z"/><path d="M75.16,174.56v-.08l.89-1.37a1.43,1.43,0,0,0,.28-.74c0-.26-.15-.39-.44-.39a.61.61,0,0,0-.3.08.57.57,0,0,0-.2.21l-.25-.21a.54.54,0,0,1,.26-.3.86.86,0,0,1,.47-.12,1,1,0,0,1,.64.2.62.62,0,0,1,.23.53,1.69,1.69,0,0,1-.3.82l-.65,1h1.12v.35Z"/><path d="M79.8,174.56v-1.33c0-.33-.14-.49-.42-.49a.5.5,0,0,0-.26.08A.56.56,0,0,0,79,173v1.55h-.37v-1.49a.3.3,0,0,0-.11-.24.5.5,0,0,0-.31-.09.52.52,0,0,0-.24.08.79.79,0,0,0-.18.19v1.55h-.37v-2.09h.24l.13.24a.63.63,0,0,1,.53-.28.68.68,0,0,1,.63.28.49.49,0,0,1,.24-.2.72.72,0,0,1,.35-.08.65.65,0,0,1,.5.19.77.77,0,0,1,.18.54v1.4Z"/><path d="M83.13,174.56v-1.33c0-.33-.15-.49-.43-.49a.44.44,0,0,0-.25.08.4.4,0,0,0-.16.19v1.55h-.38v-1.49a.28.28,0,0,0-.11-.24.5.5,0,0,0-.31-.09.52.52,0,0,0-.24.08.79.79,0,0,0-.18.19v1.55H80.7v-2.09H81l.12.24a.64.64,0,0,1,.54-.28.68.68,0,0,1,.62.28.49.49,0,0,1,.24-.2.72.72,0,0,1,.35-.08.65.65,0,0,1,.5.19.77.77,0,0,1,.18.54v1.4Z"/></svg>